<svg width="36" height="36" viewBox="0 0 36 36" fill="none" xmlns="http://www.w3.org/2000/svg">
<path fill-rule="evenodd" clip-rule="evenodd" d="M22.5602 6.07676C24.0752 6.67976 24.5387 8.77976 25.1582 9.45476C25.7777 10.1298 26.6642 10.3593 27.1547 10.3593C29.7617 10.3593 31.8752 12.4728 31.8752 15.0783V23.7708C31.8752 27.2658 29.0402 30.1008 25.5452 30.1008H10.4552C6.95868 30.1008 4.12518 27.2658 4.12518 23.7708V15.0783C4.12518 12.4728 6.23868 10.3593 8.84568 10.3593C9.33468 10.3593 10.2212 10.1298 10.8422 9.45476C11.4617 8.77976 11.9237 6.67976 13.4387 6.07676C14.9552 5.47376 21.0452 5.47376 22.5602 6.07676Z" stroke="white" stroke-width="1.5" stroke-linecap="round" stroke-linejoin="round"/>
<path d="M26.2432 14.25H26.2567" stroke="white" stroke-width="2" stroke-linecap="round" stroke-linejoin="round"/>
<path fill-rule="evenodd" clip-rule="evenodd" d="M22.7683 19.6918C22.7683 17.0578 20.6338 14.9233 17.9998 14.9233C15.3658 14.9233 13.2313 17.0578 13.2313 19.6918C13.2313 22.3258 15.3658 24.4603 17.9998 24.4603C20.6338 24.4603 22.7683 22.3258 22.7683 19.6918Z" stroke="white" stroke-width="1.5" stroke-linecap="round" stroke-linejoin="round"/>
</svg>
