<svg width="13" height="7" viewBox="0 0 13 7" fill="none" xmlns="http://www.w3.org/2000/svg">
<path fill-rule="evenodd" clip-rule="evenodd" d="M9.32431 0.165993C9.5548 0.391082 9.55918 0.760402 9.33409 0.990893L3.63748 6.82422C3.5227 6.94177 3.36367 7.00545 3.19948 6.99963C3.03529 6.99381 2.88117 6.91903 2.77499 6.79365L0.304943 3.87699C0.0967394 3.63114 0.127257 3.26305 0.373107 3.05485C0.618956 2.84665 0.987039 2.87716 1.19524 3.12301L3.25085 5.5503L8.49941 0.175774C8.7245 -0.0547165 9.09382 -0.0590958 9.32431 0.165993Z" fill="#2361FF"/>
<path fill-rule="evenodd" clip-rule="evenodd" d="M12.6576 0.165993C12.8881 0.391082 12.8924 0.760402 12.6673 0.990893L6.97073 6.82422C6.85595 6.94177 6.69692 7.00545 6.53273 6.99963C6.36854 6.99381 6.21442 6.91903 6.10824 6.79365L3.6382 3.87699C3.42999 3.63114 3.46051 3.26305 3.70636 3.05485C3.95221 2.84665 4.32029 2.87716 4.52849 3.12301L6.5841 5.5503L11.8327 0.175774C12.0577 -0.0547165 12.4271 -0.0590958 12.6576 0.165993Z" fill="#2361FF"/>
</svg>
