<svg width="35" height="34" viewBox="0 0 35 34" fill="none" xmlns="http://www.w3.org/2000/svg">
<g clip-path="url(#clip0_510_3025)">
<path d="M17.1908 17.3543L12.8905 21.6546M13.3323 22.3402L14.7441 25.173C15.5173 26.7245 15.9039 27.5002 16.4014 27.7184C16.8335 27.908 17.3296 27.8832 17.7406 27.6516C18.2139 27.3848 18.5213 26.5744 19.1361 24.9536L23.0774 14.5628C23.6775 12.9807 23.9776 12.1897 23.8051 11.6801C23.6554 11.2373 23.3077 10.8896 22.8649 10.7399C22.3553 10.5675 21.5643 10.8675 19.9823 11.4676L9.57352 15.4158C7.9576 16.0287 7.14965 16.3352 6.88284 16.8077C6.65113 17.2181 6.62574 17.7135 6.8143 18.1454C7.03142 18.6427 7.80382 19.0301 9.34863 19.805L12.2603 21.2655C12.5256 21.3986 12.6583 21.4652 12.7732 21.5539C12.8752 21.6328 12.9666 21.7244 13.0452 21.8266C13.1337 21.9417 13.1999 22.0745 13.3323 22.3402Z" stroke="white" stroke-width="1.5" stroke-linecap="round" stroke-linejoin="round"/>
</g>
<defs>
<clipPath id="clip0_510_3025">
<rect width="24" height="24" fill="white" transform="translate(0.573547 17.001) rotate(-45)"/>
</clipPath>
</defs>
</svg>
